<svg width="332.4" height="94.101" viewBox="0 0 332.4 94.101" xmlns="http://www.w3.org/2000/svg"><g id="svgGroup" stroke-linecap="round" fill-rule="evenodd" font-size="9pt" stroke="#f15564" stroke-width="0.25mm" fill="#f15564" style="stroke:#f15564;stroke-width:0.25mm;fill:#f15564"><path d="M 119.4 65.4 Q 116.7 69.8 113.3 74 Q 115 71.8 116.3 69.6 Q 117.6 67.4 118.6 65.3 A 64.572 64.572 0 0 1 115.323 70.054 A 51.952 51.952 0 0 1 113 72.9 A 1228.843 1228.843 0 0 1 111.822 74.239 Q 109.881 76.441 109.1 77.3 Q 107.3 79.2 105.15 81.3 A 147.265 147.265 0 0 1 102.265 84.046 A 124.605 124.605 0 0 1 101 85.2 A 836.072 836.072 0 0 0 100.05 86.056 Q 98.89 87.104 98.062 87.86 A 238.916 238.916 0 0 0 97.8 88.1 Q 96.647 89.157 96.787 89.106 A 0.134 0.134 0 0 0 96.8 89.1 A 10.975 10.975 0 0 0 97.834 88.502 Q 98.911 87.806 100.301 86.65 A 46.868 46.868 0 0 0 100.95 86.1 Q 103.5 83.9 105.9 81.6 Q 107.3 80.2 108.9 78.65 Q 110.5 77.1 112 75.5 L 113.3 74 Q 116.7 69.8 119.4 65.4 A 26.816 26.816 0 0 0 121.247 61.842 A 20.385 20.385 0 0 0 122.7 56.7 A 24.735 24.735 0 0 1 122.269 58.056 A 29.132 29.132 0 0 1 121.05 61 Q 120 63.2 118.6 65.3 A 48.579 48.579 0 0 0 119.847 62.564 Q 120.774 60.342 121.329 58.312 A 23.129 23.129 0 0 0 122.1 54.1 Q 122.3 51.8 120.7 50.15 A 13.705 13.705 0 0 0 118.746 48.496 A 18.706 18.706 0 0 0 116.6 47.2 Q 114.1 45.9 111.5 44.9 Q 111.375 44.838 111.211 44.814 A 1.494 1.494 0 0 0 111 44.8 A 237.76 237.76 0 0 0 111.224 44.563 Q 112.002 43.737 112.693 42.986 A 142.026 142.026 0 0 0 114 41.55 A 86.287 86.287 0 0 1 114.783 40.688 Q 115.16 40.279 115.508 39.913 A 46.204 46.204 0 0 1 116.3 39.1 A 13.965 13.965 0 0 1 116.889 38.84 Q 117.668 38.516 118.583 38.238 A 26.124 26.124 0 0 1 120.45 37.75 Q 122.9 37.2 125.25 36.75 A 49.51 49.51 0 0 0 125.354 36.73 Q 126.903 36.43 128.032 36.108 A 15.716 15.716 0 0 0 129 35.8 Q 127.8 35.95 126.094 36.269 A 95.824 95.824 0 0 0 124.9 36.5 Q 122.4 37 120.15 37.4 A 64.16 64.16 0 0 1 119.997 37.427 Q 118.416 37.704 117.53 37.775 A 6.739 6.739 0 0 1 117 37.8 A 0.019 0.019 0 0 1 117.005 37.788 Q 117.087 37.693 118.378 37.395 A 57.473 57.473 0 0 1 118.8 37.3 Q 120.6 36.9 122.9 36.4 A 2449.254 2449.254 0 0 1 123.375 36.297 Q 125.348 35.868 126.6 35.6 A 80.567 80.567 0 0 1 126.71 35.568 Q 128.369 35.082 130.45 34.55 Q 131.659 34.241 132.711 33.979 A 250.192 250.192 0 0 1 134.25 33.6 Q 135.694 33.25 135.951 33.206 A 0.367 0.367 0 0 1 136 33.2 A 4.958 4.958 0 0 0 136.167 33.16 A 4.29 4.29 0 0 0 137.6 32.5 Q 138.3 32 138.3 31.6 A 0.301 0.301 0 0 0 138.133 31.329 Q 137.912 31.2 137.4 31.2 A 6.327 6.327 0 0 0 137.108 31.206 Q 136.904 31.216 136.728 31.239 A 2.935 2.935 0 0 0 136.4 31.3 Q 135.853 31.378 134.482 31.609 A 358.671 358.671 0 0 0 133.65 31.75 A 196.331 196.331 0 0 0 133.062 31.851 Q 132.161 32.008 131.154 32.191 A 344.605 344.605 0 0 0 128.95 32.6 Q 126.3 33.1 123.7 33.6 Q 121.1 34.1 119.1 34.6 Q 120.5 32.9 123 30.3 Q 125.5 27.7 128.4 24.7 Q 131.3 21.7 134.25 18.85 Q 137.2 16 139.6 13.65 A 156.888 156.888 0 0 1 140.67 12.612 Q 142.328 11.019 143.4 10.1 Q 143.719 9.304 143.118 8.095 A 7.08 7.08 0 0 0 142.75 7.45 Q 141.7 5.8 140.25 4.35 Q 139.208 3.308 138.45 2.86 A 2.899 2.899 0 0 0 137.9 2.6 A 3.496 3.496 0 0 1 137.716 2.501 Q 137.342 2.284 136.75 1.85 Q 136.09 1.366 135.779 1.385 A 0.308 0.308 0 0 0 135.7 1.4 A 0.05 0.05 0 0 0 135.677 1.41 Q 135.486 1.536 134.1 3.2 A 1045.518 1045.518 0 0 0 133.099 4.403 Q 131.928 5.813 130.45 7.6 Q 128.3 10.2 126.2 12.8 A 262.901 262.901 0 0 0 124.956 14.352 Q 124.368 15.091 123.848 15.757 A 129.123 129.123 0 0 0 122.7 17.25 A 147.243 147.243 0 0 0 122.366 17.694 Q 121.3 19.113 121.3 19.2 Q 121.3 19.288 122.851 17.67 A 201.584 201.584 0 0 0 123.3 17.2 A 125.363 125.363 0 0 0 123.502 16.988 Q 125.447 14.936 128.25 11.8 Q 131.2 8.5 134.1 5.3 A 20.568 20.568 0 0 1 134.164 5.231 Q 135.311 4 135.7 4 A 0.673 0.673 0 0 1 135.742 4.001 Q 135.9 4.011 135.9 4.1 L 135.9 4.2 A 1875.433 1875.433 0 0 1 135.801 4.322 Q 134.494 5.931 131.75 9.3 A 531.149 531.149 0 0 0 130.934 10.305 Q 129.687 11.844 128.306 13.57 A 914.79 914.79 0 0 0 125.3 17.35 Q 121.7 21.9 117.75 26.8 A 915.646 915.646 0 0 0 115.797 29.231 A 819.357 819.357 0 0 0 110.2 36.3 L 108.3 36.6 Q 108.7 35.9 108.7 35.1 A 4.287 4.287 0 0 0 108.695 34.895 Q 108.679 34.554 108.605 34.327 A 0.915 0.915 0 0 0 108.5 34.1 A 5.924 5.924 0 0 0 108.397 33.879 Q 108.166 33.414 107.971 33.267 A 0.289 0.289 0 0 0 107.8 33.2 A 0.068 0.068 0 0 0 107.763 33.216 Q 107.64 33.305 107.3 33.9 A 0.692 0.692 0 0 1 107.204 34.083 Q 106.829 34.605 105.3 35.2 A 20.935 20.935 0 0 1 104.185 35.598 A 17.624 17.624 0 0 1 101.8 36.2 A 16.739 16.739 0 0 1 98.886 36.457 A 16.521 16.521 0 0 1 98.4 36.45 A 3.452 3.452 0 0 0 98.299 36.449 Q 97.062 36.449 96.782 37.377 A 2.16 2.16 0 0 0 96.7 38 A 2.029 2.029 0 0 0 96.705 38.142 Q 96.711 38.218 96.722 38.306 A 4.666 4.666 0 0 0 96.75 38.5 Q 96.8 38.8 96.9 39.2 Q 96.9 39.4 97.6 39.8 A 2.964 2.964 0 0 0 97.684 40.022 A 3.151 3.151 0 0 0 98.25 40.9 A 1.473 1.473 0 0 0 98.799 41.29 A 1.598 1.598 0 0 0 99.4 41.4 Q 99.791 41.4 100.822 41.186 A 36.141 36.141 0 0 0 101.45 41.05 A 81.836 81.836 0 0 0 102.334 40.845 A 95.393 95.393 0 0 0 104.7 40.25 A 156.473 156.473 0 0 0 105.458 40.047 Q 106.25 39.833 106.856 39.659 A 48.436 48.436 0 0 0 107.4 39.5 A 61.827 61.827 0 0 1 106.643 40.427 Q 104.741 42.712 101.65 46.05 Q 97.9 50.1 93.55 55.1 Q 89.2 60.1 85.25 65.45 A 86.233 86.233 0 0 0 82.062 70.064 A 66.822 66.822 0 0 0 78.75 75.8 Q 76.2 80.8 76.2 84.8 Q 76.2 88.5 78.85 91.3 A 8.598 8.598 0 0 0 82.579 93.638 A 10.726 10.726 0 0 0 85.8 94.1 A 9.179 9.179 0 0 0 86.253 94.089 Q 89.134 93.946 93.576 92.032 A 46.672 46.672 0 0 0 93.65 92 Q 97.136 90.491 101.629 86.605 A 77.349 77.349 0 0 0 105.3 83.2 Q 107.2 81.3 108.8 79.35 Q 110.4 77.4 112 75.5 M 194 41.2 L 196.7 39.2 L 194.2 40.9 L 194 41.2 L 193.7 42 A 6434.178 6434.178 0 0 1 191.769 43.238 A 5705.616 5705.616 0 0 1 186.2 46.8 A 196.375 196.375 0 0 0 185.644 47.156 Q 182.489 49.187 181.2 50.2 A 0.793 0.793 0 0 1 181.161 50.224 Q 180.943 50.352 181.153 49.981 A 3.575 3.575 0 0 1 181.2 49.9 A 5.983 5.983 0 0 1 181.334 49.687 Q 181.567 49.333 181.8 49.1 L 182 48.9 Q 181.416 49.272 180.888 49.587 A 32.659 32.659 0 0 1 180 50.1 A 208.409 208.409 0 0 0 179.751 50.239 Q 179.383 50.444 179.051 50.631 A 124.924 124.924 0 0 0 178.4 51 A 14.071 14.071 0 0 1 178.457 50.901 Q 178.824 50.271 179.974 48.41 A 635.341 635.341 0 0 1 180.6 47.4 A 101.498 101.498 0 0 1 180.782 47.108 Q 182.547 44.286 185.35 40.2 Q 188.3 35.9 191.8 31.1 Q 192.1 30.6 192.1 30.2 A 2.055 2.055 0 0 0 191.944 29.419 Q 191.792 29.047 191.493 28.687 A 4.557 4.557 0 0 0 190.9 28.1 Q 189.7 27.1 188 26.25 Q 187.137 25.818 186.351 25.451 A 49.563 49.563 0 0 0 184.9 24.8 A 258.15 258.15 0 0 0 182.151 28.593 Q 180.879 30.385 179.812 31.967 A 108.939 108.939 0 0 0 177.8 35.05 A 147.719 147.719 0 0 0 176.278 37.531 Q 175.568 38.716 174.96 39.788 A 71.573 71.573 0 0 0 173.65 42.2 Q 172.1 45.2 170.8 47.9 Q 171.425 46.838 172.284 45.58 A 65.895 65.895 0 0 1 173.4 44 Q 174.25 42.831 175.029 41.818 A 70.743 70.743 0 0 1 176.35 40.15 A 66.288 66.288 0 0 1 176.632 39.807 Q 177.643 38.589 177.606 38.78 A 0.167 0.167 0 0 1 177.6 38.8 A 0.117 0.117 0 0 1 177.591 38.833 Q 177.499 39.08 176.45 40.95 A 660.897 660.897 0 0 1 175.682 42.314 Q 175.274 43.038 174.817 43.845 A 1317.015 1317.015 0 0 1 173.65 45.9 L 170.35 51.7 A 579.824 579.824 0 0 0 169.372 53.425 Q 168.356 55.225 167.6 56.6 Q 166.698 58.241 166.536 58.67 A 0.454 0.454 0 0 0 166.5 58.8 Q 166.7 60.2 167.3 61.5 A 19.442 19.442 0 0 0 166.932 61.357 A 16.089 16.089 0 0 0 166.35 61.15 Q 165.9 61 165.7 61 A 0.505 0.505 0 0 0 165.671 61.001 Q 165.375 61.018 165.315 61.389 A 1.331 1.331 0 0 0 165.3 61.6 A 0.775 0.775 0 0 0 165.3 61.623 Q 165.318 62.22 166.25 63.25 A 10.477 10.477 0 0 0 166.812 63.825 A 11.956 11.956 0 0 0 168.5 65.15 A 7.216 7.216 0 0 0 169.218 65.566 Q 169.611 65.763 169.973 65.87 A 2.906 2.906 0 0 0 170.8 66 A 2.347 2.347 0 0 0 171.074 65.983 Q 171.918 65.884 173.2 65.2 A 22.559 22.559 0 0 0 173.754 64.895 A 19.941 19.941 0 0 0 175.95 63.45 A 9.519 9.519 0 0 0 176.117 63.32 Q 177.2 62.459 177.2 61.9 A 1.16 1.16 0 0 0 177.059 61.342 A 1.474 1.474 0 0 0 176.8 61 A 7.48 7.48 0 0 0 176.548 60.759 Q 176.428 60.649 176.318 60.561 A 3.063 3.063 0 0 0 176.1 60.4 L 181.7 55.9 Q 183.5 54.5 186.3 52.2 Q 189.1 49.9 192.2 47.2 A 0.519 0.519 0 0 1 192.194 47.276 Q 192.188 47.316 192.176 47.361 A 1.304 1.304 0 0 1 192.15 47.45 Q 192.122 47.534 192.11 47.635 A 1.359 1.359 0 0 0 192.1 47.8 Q 191.4 50.6 191.1 52.9 A 57.82 57.82 0 0 0 191.073 53.108 Q 190.8 55.264 190.8 56.6 A 1.754 1.754 0 0 1 190.795 56.728 Q 190.753 57.299 190.35 58.15 A 3.978 3.978 0 0 0 190.334 58.184 Q 189.9 59.123 189.9 60.4 Q 189.9 62.3 191.45 64 A 6.341 6.341 0 0 0 192.101 64.623 A 4.449 4.449 0 0 0 195 65.7 A 5.45 5.45 0 0 0 198.087 64.731 A 8.061 8.061 0 0 0 199.55 63.45 Q 201.6 61.2 202 58.5 A 51.552 51.552 0 0 0 202.998 57.681 Q 205.096 55.914 207.55 53.5 A 97.981 97.981 0 0 0 209.461 51.566 A 114.723 114.723 0 0 0 213.7 46.9 A 85.754 85.754 0 0 0 214.466 45.998 A 77.957 77.957 0 0 0 219.3 39.6 A 3.091 3.091 0 0 0 219.302 39.608 Q 219.378 39.983 219.619 40.716 A 33.767 33.767 0 0 0 219.8 41.25 A 6.678 6.678 0 0 0 219.894 41.504 Q 220.247 42.4 220.6 42.4 A 0.246 0.246 0 0 0 220.703 42.376 Q 220.952 42.262 221.2 41.6 Q 221.9 39.6 223.1 36.6 Q 224.3 33.6 225.35 30.55 A 23.349 23.349 0 0 0 225.839 28.956 Q 226.309 27.192 226.309 25.856 A 7.126 7.126 0 0 0 226.3 25.5 Q 226.3 24.6 225.15 23.35 A 4.725 4.725 0 0 0 224.74 22.953 A 3.364 3.364 0 0 0 222.5 22.1 Q 221.6 22.1 220.65 22.75 A 2.83 2.83 0 0 0 220.603 22.783 Q 219.961 23.241 219.388 24.183 A 9.773 9.773 0 0 0 218.9 25.1 Q 218.2 26.4 218 27.8 A 24.485 24.485 0 0 0 217.948 28.188 Q 217.875 28.761 217.838 29.28 A 14.42 14.42 0 0 0 217.8 30.3 A 18.963 18.963 0 0 0 217.802 30.576 Q 217.814 31.406 217.9 32.05 A 14.604 14.604 0 0 1 217.954 32.505 Q 217.976 32.719 217.987 32.908 A 6.473 6.473 0 0 1 218 33.3 A 102.371 102.371 0 0 1 217.95 33.38 Q 214.775 38.429 211.65 42.1 Q 208.5 45.8 204.85 49 Q 201.2 52.2 196.5 55.8 A 36.672 36.672 0 0 1 196.663 55.128 Q 196.964 53.926 197.5 52.05 Q 198.2 49.6 199.3 46.75 Q 200.4 43.9 201.95 41.2 A 18.088 18.088 0 0 1 203.081 39.462 A 14.402 14.402 0 0 1 205.6 36.8 Q 206.118 36.368 205.444 35.341 A 5.602 5.602 0 0 0 205.2 35 A 13.525 13.525 0 0 0 205.042 34.798 A 14.608 14.608 0 0 0 202.85 32.6 A 12.006 12.006 0 0 0 202.841 32.593 Q 201.61 31.592 200.921 31.592 A 0.856 0.856 0 0 0 200.8 31.6 Q 198.8 31.9 197.35 33.45 Q 195.9 35 195.5 36.3 A 4.59 4.59 0 0 0 195.452 36.465 Q 195.153 37.587 195.9 37.4 L 194.2 40.9 M 148.4 25.2 L 152.7 25.2 Q 154.4 23 156.45 20.25 L 160.55 14.75 Q 162.567 12.044 164.198 9.87 A 1596.722 1596.722 0 0 1 164.25 9.8 Q 165.9 7.6 166.7 6.4 Q 166.3 6 166.3 5.4 A 3.044 3.044 0 0 1 166.527 4.263 A 3.891 3.891 0 0 1 166.75 3.8 A 6.77 6.77 0 0 0 166.944 3.431 Q 167.114 3.079 167.171 2.828 A 1.04 1.04 0 0 0 167.2 2.6 Q 167.2 2.3 167.05 1.9 A 2.861 2.861 0 0 1 166.96 1.62 Q 166.9 1.39 166.9 1.2 Q 166.9 0.4 167.8 0.4 Q 167.961 0.4 168.509 0.529 A 22.156 22.156 0 0 1 168.8 0.6 Q 170.1 1 172.15 2.2 A 18.627 18.627 0 0 1 174.498 3.817 A 15.76 15.76 0 0 1 175.7 4.9 A 4.646 4.646 0 0 1 176.265 5.575 Q 177.066 6.757 176.6 8 L 174.15 10.8 Q 172.4 12.8 170.2 15.35 Q 168 17.9 165.85 20.55 Q 163.7 23.2 162 25.4 Q 164.7 25.2 167.55 25.1 Q 170.211 25.007 172.349 24.913 A 391.033 391.033 0 0 0 172.65 24.9 A 257.56 257.56 0 0 1 173.56 24.861 Q 174.703 24.814 175.292 24.803 A 16.932 16.932 0 0 1 175.6 24.8 A 9.888 9.888 0 0 1 176.166 24.815 Q 176.96 24.861 177.243 25.048 A 0.3 0.3 0 0 1 177.4 25.3 Q 177.4 25.7 176.6 26.1 Q 175.8 26.5 174.9 26.7 A 0.08 0.08 0 0 0 174.861 26.685 Q 174.562 26.627 172.15 26.9 Q 169.5 27.2 166.9 27.5 Q 165.76 27.595 164.033 27.735 A 2480.279 2480.279 0 0 1 163.85 27.75 Q 162 27.9 160.3 28 L 159.9 28.4 Q 162.1 28.3 164.85 28.15 Q 167.6 28 169.2 28 A 23.121 23.121 0 0 1 168.03 28.173 Q 166.625 28.347 164.7 28.45 A 55.445 55.445 0 0 0 159.953 28.904 A 50.449 50.449 0 0 0 159.3 29 A 57.692 57.692 0 0 0 157.737 30.798 Q 156.89 31.811 155.974 32.984 A 110.187 110.187 0 0 0 154.85 34.45 Q 152.4 37.7 149.75 41.35 Q 147.1 45 144.7 48.45 Q 142.459 51.671 140.655 54.238 A 989.259 989.259 0 0 1 140.4 54.6 Q 138.945 56.667 138.018 57.914 A 53.538 53.538 0 0 1 137.5 58.6 A 21.694 21.694 0 0 0 138.62 58.162 Q 139.116 57.953 139.661 57.7 A 43.559 43.559 0 0 0 140.8 57.15 Q 142.7 56.2 144.6 55.1 Q 149 52.2 154.05 48.8 A 1321.469 1321.469 0 0 1 157.662 46.377 Q 160.525 44.463 162.9 42.9 Q 165.3 41.4 167.65 39.65 Q 170 37.9 172.2 36 Q 172.381 35.819 172.439 35.965 A 0.272 0.272 0 0 1 172.45 36 Q 172.5 36.2 172.3 36.4 L 168.5 39.8 A 3.473 3.473 0 0 1 168.579 40.223 A 2.713 2.713 0 0 1 168.6 40.55 L 168.6 41.3 A 5.783 5.783 0 0 1 168.437 42.69 A 5.28 5.28 0 0 1 168.35 43 Q 168.1 43.8 167.4 44.3 Q 165.7 45.4 162.25 47.9 A 400.349 400.349 0 0 0 158.829 50.409 Q 156.784 51.923 154.5 53.65 Q 150.2 56.9 146.05 60.2 Q 141.9 63.5 138.7 66.3 Q 136.287 68.411 135.069 69.783 A 11.429 11.429 0 0 0 134.4 70.6 Q 132.939 69.338 132.073 68.187 A 8.009 8.009 0 0 1 131.35 67.05 Q 130.504 65.407 130.5 63.913 A 5.339 5.339 0 0 1 130.5 63.9 Q 130.5 63.3 130.65 62.75 A 11.505 11.505 0 0 0 130.874 61.749 A 12.7 12.7 0 0 0 130.9 61.6 A 13.554 13.554 0 0 1 131.228 60.735 Q 131.855 59.214 133.25 56.5 A 156.658 156.658 0 0 1 135.022 53.159 Q 136.259 50.888 137.75 48.3 A 268.085 268.085 0 0 1 143.213 39.247 A 291.422 291.422 0 0 1 143.4 38.95 Q 146.4 34.2 149.1 30.4 Q 148.2 30.6 147.25 30.7 A 17.771 17.771 0 0 1 145.513 30.8 A 16.278 16.278 0 0 1 145.4 30.8 A 30.513 30.513 0 0 1 143.177 30.723 Q 142.135 30.647 141.211 30.495 A 18.206 18.206 0 0 1 140.95 30.45 A 134.79 134.79 0 0 1 140.277 30.328 Q 139.123 30.114 138.785 30.025 A 1.474 1.474 0 0 1 138.7 30 A 1.468 1.468 0 0 1 137.897 29.573 Q 137.677 29.34 137.548 28.991 A 2.544 2.544 0 0 1 137.45 28.65 Q 137.2 27.5 137.3 26.3 A 1.008 1.008 0 0 1 137.136 26.23 Q 136.97 26.139 136.9 26 A 1.844 1.844 0 0 0 136.838 25.885 Q 136.804 25.828 136.77 25.782 A 0.734 0.734 0 0 0 136.7 25.7 Q 136.7 25.5 136.65 25.3 Q 136.6 25.1 136.6 24.9 A 2.809 2.809 0 0 1 136.632 24.457 Q 136.669 24.231 136.746 24.056 A 0.925 0.925 0 0 1 137.15 23.6 A 2.467 2.467 0 0 1 138.096 23.315 A 3.051 3.051 0 0 1 138.4 23.3 A 9.905 9.905 0 0 1 139.292 23.342 A 13.062 13.062 0 0 1 140.15 23.45 Q 141.1 23.6 142.1 23.6 A 18.629 18.629 0 0 0 144.417 23.449 A 22.623 22.623 0 0 0 145.7 23.25 A 10.837 10.837 0 0 0 146.406 23.098 Q 147.661 22.778 147.9 22.3 A 2.579 2.579 0 0 1 148.027 22.074 Q 148.263 21.7 148.5 21.7 A 0.148 0.148 0 0 1 148.597 21.753 Q 148.763 21.917 149.023 22.594 A 12.634 12.634 0 0 1 149.1 22.8 Q 149.1 22.9 149.15 23 A 0.373 0.373 0 0 1 149.176 23.072 Q 149.2 23.163 149.2 23.3 Q 149.2 24.2 148.4 25.2 Z M 10.2 62.9 A 705.08 705.08 0 0 0 9.778 63.204 Q 8.312 64.259 6.998 65.217 A 424.233 424.233 0 0 0 4.5 67.05 A 45.212 45.212 0 0 0 3.412 67.879 Q 1.788 69.159 1.1 70 Q 0.7 70.5 0.35 71 A 2.175 2.175 0 0 0 0.135 71.379 A 1.547 1.547 0 0 0 0 72 Q 0 72.575 0.466 73.203 A 4.519 4.519 0 0 0 0.9 73.7 A 5.701 5.701 0 0 0 1.014 73.823 A 4.83 4.83 0 0 0 3 75.1 A 8.426 8.426 0 0 0 3.814 75.328 A 6.758 6.758 0 0 0 5.3 75.5 A 5.294 5.294 0 0 0 6.156 75.433 A 3.977 3.977 0 0 0 7.7 74.85 A 2.728 2.728 0 0 0 8.014 74.613 A 1.929 1.929 0 0 0 8.7 73.1 A 2.636 2.636 0 0 0 8.652 72.602 Q 8.571 72.182 8.355 71.744 A 5.117 5.117 0 0 0 7.9 71 A 0.048 0.048 0 0 0 7.902 71.001 Q 8.086 71.081 9.461 69.93 A 43.284 43.284 0 0 0 9.85 69.6 Q 11.6 68.1 15.3 65.8 A 41.311 41.311 0 0 1 17.521 64.519 Q 19.06 63.69 20.884 62.849 A 91.064 91.064 0 0 1 24.95 61.1 Q 28.39 59.713 32.649 58.559 A 105.627 105.627 0 0 1 39.3 57 A 1.586 1.586 0 0 0 39.358 56.988 Q 40.416 56.755 41 55.1 A 10.284 10.284 0 0 0 41.019 55.047 A 10.748 10.748 0 0 0 41.6 51.5 A 9.559 9.559 0 0 0 41.598 51.295 A 8.546 8.546 0 0 0 41.35 49.4 A 5.077 5.077 0 0 0 41.224 48.974 Q 41.116 48.661 40.977 48.411 A 2.283 2.283 0 0 0 40.6 47.9 A 8.669 8.669 0 0 0 40.517 47.809 Q 39.288 46.482 37.109 45.221 A 29.499 29.499 0 0 0 34.85 44.05 Q 30.9 42.2 26.25 39.8 Q 21.6 37.4 17.6 33.8 Q 17.061 33.261 16.716 32.696 A 3.963 3.963 0 0 1 16.1 30.6 A 5.61 5.61 0 0 1 16.14 29.933 Q 16.353 28.152 17.7 26.3 A 19.842 19.842 0 0 1 19.072 24.619 A 24.008 24.008 0 0 1 21.7 22.15 A 35.425 35.425 0 0 1 23.35 20.886 A 29.3 29.3 0 0 1 26.5 18.9 Q 30 16.6 34.7 14.8 Q 39.4 13 44.5 11.7 A 111.814 111.814 0 0 1 47.644 10.946 A 94.449 94.449 0 0 1 54.25 9.7 Q 57.156 9.263 59.535 9.098 A 38.877 38.877 0 0 1 62.2 9 Q 63.906 9 65.182 9.172 A 11.251 11.251 0 0 1 66.4 9.4 Q 68 9.8 67.9 10.8 Q 67.181 12.094 65.507 13.93 A 45.938 45.938 0 0 1 64.05 15.45 Q 61.2 18.3 57.5 21.35 A 134.454 134.454 0 0 1 55.545 22.932 A 115.919 115.919 0 0 1 50.25 26.9 A 76.024 76.024 0 0 1 49.928 27.125 Q 47.683 28.689 45.912 29.676 A 23.178 23.178 0 0 1 44.3 30.5 A 10.211 10.211 0 0 0 44.217 30.55 Q 43.713 30.859 42.7 31.55 A 7.9 7.9 0 0 0 42.554 31.652 Q 41.6 32.335 41.6 32.8 Q 41.6 33.214 42.492 33.285 A 5.164 5.164 0 0 0 42.9 33.3 A 7.613 7.613 0 0 0 43.608 33.265 Q 45.209 33.116 47.424 32.319 A 34.95 34.95 0 0 0 49.7 31.4 A 57.903 57.903 0 0 0 53.83 29.366 A 76.246 76.246 0 0 0 58.75 26.45 A 75.588 75.588 0 0 0 61.206 24.805 A 64.725 64.725 0 0 0 67.3 20 Q 66.4 21.1 65.4 22.2 Q 64.4 23.3 63.2 24.3 A 5.165 5.165 0 0 0 63.572 24.41 Q 63.931 24.5 64.2 24.5 A 4.846 4.846 0 0 0 65.403 24.337 Q 66.001 24.183 66.66 23.886 A 12.274 12.274 0 0 0 67.95 23.2 A 23.23 23.23 0 0 0 69.831 21.929 A 29.367 29.367 0 0 0 72.25 19.9 Q 74.4 17.9 76 15.75 Q 76.95 14.473 77.442 13.32 A 6.693 6.693 0 0 0 77.9 11.8 Q 78.047 11.063 77.733 10.108 A 6.569 6.569 0 0 0 77.45 9.4 A 20.118 20.118 0 0 0 76.927 8.352 A 16.1 16.1 0 0 0 76.05 6.9 A 9.534 9.534 0 0 0 75.957 6.767 Q 75.372 5.939 75.155 6.049 A 0.147 0.147 0 0 0 75.1 6.1 Q 74.8 6.6 74.7 7.15 Q 74.636 7.502 74.449 7.916 A 5.777 5.777 0 0 1 74.2 8.4 L 74.1 8.7 A 12.085 12.085 0 0 0 74.098 8.687 Q 73.797 7.093 73 5.25 A 21.916 21.916 0 0 0 72.372 3.919 A 17.859 17.859 0 0 0 71.2 1.95 A 5.99 5.99 0 0 0 70.978 1.648 Q 70.639 1.217 70.268 0.921 A 2.872 2.872 0 0 0 68.9 0.3 Q 67.4 0 65.6 0 Q 63.412 0 60.737 0.352 A 60.74 60.74 0 0 0 57.35 0.9 Q 52.6 1.8 47.3 3.3 L 47 3.4 M 237.7 28.1 L 238.5 27.2 Q 241.2 27.3 244.3 28.85 Q 247.4 30.4 249.65 32.85 Q 251.9 35.3 252 38.4 Q 252 38.763 251.67 39.085 A 1.751 1.751 0 0 1 251.6 39.15 Q 251.2 39.5 251 38.8 A 15.91 15.91 0 0 0 249.943 36.879 A 13.767 13.767 0 0 0 249.4 36.1 A 8.456 8.456 0 0 0 248.34 34.923 A 6.851 6.851 0 0 0 247.4 34.2 A 4.129 4.129 0 0 0 245.928 33.65 A 3.92 3.92 0 0 0 245.3 33.6 A 3.414 3.414 0 0 0 243.21 34.315 A 4.282 4.282 0 0 0 243.1 34.4 A 22.94 22.94 0 0 0 241.777 35.479 Q 240.29 36.779 238.471 38.72 A 72.965 72.965 0 0 0 238.35 38.85 Q 235.6 41.8 232.85 45.2 Q 230.1 48.6 227.95 51.8 A 47.507 47.507 0 0 0 226.738 53.693 Q 225.675 55.449 225.123 56.79 A 12.48 12.48 0 0 0 225 57.1 Q 225.6 56.4 227.1 55.1 Q 228.6 53.8 230.3 52.45 A 189.858 189.858 0 0 1 231.505 51.501 Q 231.977 51.132 232.401 50.806 A 91.733 91.733 0 0 1 233.2 50.2 A 15.603 15.603 0 0 1 233.418 50.04 Q 233.884 49.703 234.9 49 Q 236.2 48.1 237.65 47.1 A 50.939 50.939 0 0 1 238.503 46.524 Q 239.258 46.025 239.821 45.701 A 13.784 13.784 0 0 1 240 45.6 Q 240 45.779 239.081 46.517 A 23.313 23.313 0 0 1 238.85 46.7 A 42.528 42.528 0 0 1 237.924 47.403 Q 237.512 47.708 237.056 48.032 A 74.233 74.233 0 0 1 236.1 48.7 Q 234.5 49.8 233.15 50.7 A 50.88 50.88 0 0 0 232.681 51.016 Q 231.744 51.656 231.5 51.9 A 399.593 399.593 0 0 1 230.471 52.832 Q 229.942 53.31 229.351 53.84 A 702.237 702.237 0 0 1 228.95 54.2 Q 227.5 55.5 226.3 56.6 A 42.582 42.582 0 0 0 225.758 57.105 Q 225.036 57.79 224.728 58.165 A 3.546 3.546 0 0 0 224.7 58.2 A 2.432 2.432 0 0 0 224.648 58.31 Q 224.516 58.612 224.599 58.699 A 0.095 0.095 0 0 0 224.6 58.7 Q 224.698 58.798 224.987 58.417 A 3.45 3.45 0 0 0 225 58.4 Q 225.9 57.1 227.7 55.6 A 66.592 66.592 0 0 1 230.087 53.706 A 80.052 80.052 0 0 1 231.65 52.55 Q 233.8 51 235.5 49.7 A 153.871 153.871 0 0 1 237.384 48.308 Q 238.312 47.634 239.15 47.05 Q 240.8 45.9 242.1 44.9 Q 242.171 43.407 242.925 42.571 A 2.767 2.767 0 0 1 243.65 42 A 6.855 6.855 0 0 1 244.216 41.719 Q 245.264 41.261 245.9 41.5 Q 246.478 41.693 247.658 42.209 A 61.815 61.815 0 0 1 247.75 42.25 A 11.749 11.749 0 0 1 249.468 43.177 A 10.35 10.35 0 0 1 250 43.55 A 2.557 2.557 0 0 1 250.337 43.849 Q 250.922 44.476 250.6 45.2 A 8.387 8.387 0 0 0 250.234 46.238 Q 249.903 47.39 249.678 49.071 A 37.565 37.565 0 0 0 249.55 50.15 Q 249.2 53.5 249.2 56.3 Q 249.2 59.018 250.354 59.889 A 2.17 2.17 0 0 0 251.7 60.3 A 3.344 3.344 0 0 0 252.551 60.177 Q 253.396 59.953 254.503 59.322 A 16.844 16.844 0 0 0 255.2 58.9 Q 256 58.4 256.4 58.4 A 0.432 0.432 0 0 1 256.519 58.415 Q 256.652 58.453 256.687 58.589 A 0.442 0.442 0 0 1 256.7 58.7 A 0.94 0.94 0 0 1 256.66 58.953 Q 256.59 59.203 256.393 59.543 A 5.928 5.928 0 0 1 256.2 59.85 A 23.096 23.096 0 0 1 255.996 60.152 Q 255.717 60.556 255.562 60.733 A 1.37 1.37 0 0 1 255.5 60.8 Q 254.3 62.1 252.65 63.15 A 7.043 7.043 0 0 1 251.053 63.917 A 5.627 5.627 0 0 1 249.3 64.2 Q 248.6 64.2 247.9 64 A 4.147 4.147 0 0 1 247.069 63.657 A 5.376 5.376 0 0 1 246.5 63.3 Q 244 61.6 242.95 58.1 A 30.732 30.732 0 0 1 242.331 55.714 Q 241.9 53.702 241.9 52.1 Q 241.9 51.5 241.95 51 Q 242 50.5 242.1 50.1 Q 241 51 238.45 53.15 Q 235.9 55.3 232.8 57.95 Q 229.7 60.6 226.9 62.9 Q 224.756 64.661 223.375 65.719 A 47.567 47.567 0 0 1 222.6 66.3 Q 222.07 66.3 221.035 65.248 A 13.361 13.361 0 0 1 220.75 64.95 A 37.141 37.141 0 0 1 219.187 63.145 A 44.316 44.316 0 0 1 218.25 61.95 Q 217.023 60.33 216.422 59.529 A 201.245 201.245 0 0 1 216.4 59.5 A 29.893 29.893 0 0 1 217.827 55.034 A 39.51 39.51 0 0 1 219.55 51.35 A 68.04 68.04 0 0 1 224.706 43.128 A 74.207 74.207 0 0 1 224.8 43 Q 227.8 38.9 230.85 35.4 Q 233.9 31.9 236.2 29.5 A 23.247 23.247 0 0 0 234.674 30.781 Q 233.669 31.697 232.6 32.85 A 327.859 327.859 0 0 1 231.775 33.737 Q 230.536 35.064 230 35.6 Q 228.8 36.8 227.6 37.95 A 48.262 48.262 0 0 0 226.045 39.508 A 40.787 40.787 0 0 0 225.4 40.2 A 120.038 120.038 0 0 1 229.501 35.396 A 102.144 102.144 0 0 1 231.35 33.4 Q 234.3 30.3 235.6 29.3 A 4.411 4.411 0 0 1 235.812 29.103 Q 236.064 28.882 236.426 28.617 A 13.859 13.859 0 0 1 236.45 28.6 Q 237 28.2 237.7 28.1 Z M 257.376 63.347 A 3.296 3.296 0 0 0 259.6 64.6 A 6.6 6.6 0 0 1 259.95 63.874 Q 260.702 62.509 262.45 60.45 A 71.515 71.515 0 0 1 263.562 59.172 Q 265.473 57.027 268 54.5 Q 271.3 51.2 274.95 47.75 Q 278.6 44.3 282 41.1 A 394.586 394.586 0 0 1 282.941 40.217 Q 284.331 38.917 285.588 37.769 A 221.645 221.645 0 0 1 288.05 35.55 Q 290.7 33.2 291.8 32.2 A 33.251 33.251 0 0 0 290.08 34.394 A 26.32 26.32 0 0 0 288.1 37.6 A 62.676 62.676 0 0 0 288.005 37.783 Q 286.69 40.341 286.4 41.5 A 4.461 4.461 0 0 1 286.405 41.489 Q 286.708 40.787 287.65 39.25 Q 288.6 37.7 289.65 36.1 A 51.373 51.373 0 0 1 290.123 35.391 Q 290.842 34.334 291.3 33.8 Q 291.3 33.888 290.726 34.817 A 62.954 62.954 0 0 1 290.55 35.1 Q 290.128 35.775 289.643 36.577 A 182.587 182.587 0 0 0 288.85 37.9 Q 287.9 39.5 287.15 41.2 A 11.934 11.934 0 0 0 286.784 42.126 Q 286.6 42.66 286.504 43.135 A 4.895 4.895 0 0 0 286.4 44.1 A 11.221 11.221 0 0 0 286.498 45.612 A 8.708 8.708 0 0 0 287.1 47.85 Q 287.516 48.83 288.037 49.298 A 1.61 1.61 0 0 0 288.8 49.7 A 1.623 1.623 0 0 1 288.794 49.553 Q 288.794 48.452 290.15 46.3 A 41.168 41.168 0 0 1 290.244 46.151 Q 290.955 45.034 291.818 43.835 A 67.443 67.443 0 0 1 293.7 41.35 Q 295.8 38.7 297.95 36.25 Q 300.1 33.8 301.55 32.2 A 114.647 114.647 0 0 0 301.896 31.816 Q 302.842 30.763 302.977 30.548 A 0.125 0.125 0 0 0 303 30.5 A 1.917 1.917 0 0 0 302.965 30.145 Q 302.812 29.337 302 28.2 Q 301 26.8 299.85 25.65 A 11.511 11.511 0 0 0 299.689 25.493 Q 298.657 24.5 298.1 24.5 A 0.479 0.479 0 0 0 298.073 24.501 Q 297.45 24.535 295.15 26.15 A 61.408 61.408 0 0 0 295.122 26.17 Q 292.781 27.816 289.5 30.45 Q 286.2 33.1 282.55 36.1 Q 278.9 39.1 275.7 41.8 A 3074.845 3074.845 0 0 1 275.546 41.93 Q 272.448 44.544 270.35 46.3 A 344.847 344.847 0 0 0 269.751 46.802 Q 268.155 48.145 267.9 48.4 Q 269.9 46 272.45 43.1 A 576.079 576.079 0 0 0 273.084 42.377 A 522.937 522.937 0 0 0 277.35 37.45 Q 278.966 35.559 279.99 34.118 A 21.212 21.212 0 0 0 280.8 32.9 Q 280.8 32.166 280.207 31.216 A 8.168 8.168 0 0 0 279.7 30.5 Q 278.6 29.1 277.2 28 A 9.492 9.492 0 0 0 276.945 27.806 Q 276.176 27.243 275.535 27.03 A 2.335 2.335 0 0 0 274.8 26.9 A 542.671 542.671 0 0 0 273.652 28.56 Q 271.896 31.112 270.913 32.615 A 54.604 54.604 0 0 0 270.25 33.65 A 92.692 92.692 0 0 0 269.997 34.059 Q 269.112 35.5 269.2 35.5 A 0.231 0.231 0 0 0 269.306 35.458 Q 269.559 35.305 270.239 34.581 A 30.089 30.089 0 0 0 270.5 34.3 Q 271.6 33.1 272.9 31.9 A 396.488 396.488 0 0 0 272.766 32.084 Q 271.946 33.214 270.15 35.7 A 674.656 674.656 0 0 0 269.889 36.062 Q 268.967 37.34 267.937 38.78 A 1154.364 1154.364 0 0 0 265.75 41.85 Q 263.3 45.3 261.05 48.85 A 119.529 119.529 0 0 0 260.202 50.208 Q 258.517 52.947 257.35 55.2 A 12.611 12.611 0 0 0 257.349 55.203 Q 255.9 58.001 255.9 59.3 A 5.178 5.178 0 0 0 255.906 59.538 Q 255.944 60.375 256.253 61.253 A 8.519 8.519 0 0 0 256.9 62.65 A 5.039 5.039 0 0 0 257.376 63.347 Z M 17.9 57.8 A 218.293 218.293 0 0 1 22.638 54.726 A 181.713 181.713 0 0 1 25.35 53.05 Q 28.9 50.9 30.8 49.8 A 9.096 9.096 0 0 0 30.006 49.334 Q 29.205 48.911 28.037 48.439 A 41.599 41.599 0 0 0 26.9 48 Q 24.2 47 20.75 45.55 A 65.691 65.691 0 0 1 15.519 43.066 A 74.715 74.715 0 0 1 13.75 42.1 A 29.053 29.053 0 0 1 8.232 38.105 A 26.77 26.77 0 0 1 7.5 37.4 A 8.544 8.544 0 0 1 6.461 36.262 A 6.314 6.314 0 0 1 5.65 34.85 A 7.532 7.532 0 0 1 5.191 33.265 A 6.37 6.37 0 0 1 5.1 32.2 Q 5.1 29.481 7.061 26.609 A 17.014 17.014 0 0 1 7.65 25.8 Q 10.2 22.5 14.45 19.3 Q 18.7 16.1 23.7 13.3 Q 26.1 12 28.65 10.75 Q 31.2 9.5 33.7 8.4 Q 39.6 6.3 45.55 4.75 Q 51.5 3.2 56.6 2.35 Q 60.027 1.779 62.641 1.546 A 40.671 40.671 0 0 1 65 1.4 Q 66.671 1.312 66.872 0.992 A 0.17 0.17 0 0 0 66.9 0.9 A 0.19 0.19 0 0 0 66.796 0.738 Q 66.621 0.627 66.152 0.606 A 5.404 5.404 0 0 0 65.9 0.6 A 63.173 63.173 0 0 0 63.153 0.745 Q 61.927 0.835 60.563 0.974 A 125.606 125.606 0 0 0 57.7 1.3 Q 52.9 1.9 47.3 3.3 L 47 3.4 L 46.7 3.5 L 46.5 3.6 L 46.2 3.7 L 46 3.7 L 45.6 3.8 A 209.451 209.451 0 0 0 41.848 4.988 A 251.675 251.675 0 0 0 35.25 7.25 Q 29.8 9.2 24.5 11.8 L 22.7 12.9 L 22.8 12.9 Q 22.87 12.9 22.939 12.852 A 0.451 0.451 0 0 0 23 12.8 Q 25.5 11.6 28.2 10.5 Q 30.9 9.4 33.7 8.4 Q 36.7 7 39.7 5.85 A 104.238 104.238 0 0 1 39.887 5.778 A 95.686 95.686 0 0 1 45.6 3.8 A 209.451 209.451 0 0 0 41.848 4.988 M 300.135 64.914 A 6.609 6.609 0 0 0 302.3 65.3 Q 303.469 64.681 305.087 63.543 A 58.537 58.537 0 0 0 306.65 62.4 Q 309.3 60.4 312.45 57.8 L 318.75 52.6 Q 321.9 50 324.7 48 A 41.648 41.648 0 0 1 325.604 47.34 A 33.786 33.786 0 0 1 327 46.4 Q 327.584 46.028 328.112 45.713 A 32.659 32.659 0 0 1 329 45.2 A 15.537 15.537 0 0 0 329.944 44.66 Q 330.436 44.353 330.829 44.047 A 6.393 6.393 0 0 0 331.55 43.4 Q 332.188 42.724 332.347 42.33 A 0.628 0.628 0 0 0 332.4 42.1 Q 332.4 41.698 331.947 41.619 A 1.452 1.452 0 0 0 331.7 41.6 A 1.453 1.453 0 0 0 331.679 41.6 Q 330.878 41.612 329.2 42.5 A 79.733 79.733 0 0 0 328.283 42.995 Q 326.883 43.763 325.331 44.681 A 145.698 145.698 0 0 0 321.95 46.75 Q 317.9 49.3 313.75 51.95 Q 309.6 54.6 306 56.7 Q 303.525 58.144 301.617 58.973 A 19.759 19.759 0 0 1 300 59.6 Q 299.162 59.656 298.636 59.446 A 1.33 1.33 0 0 1 298 58.95 A 2.88 2.88 0 0 1 297.637 58.178 A 3.378 3.378 0 0 1 297.5 57.2 Q 297.5 55.834 298.327 53.952 A 19.262 19.262 0 0 1 299.1 52.4 Q 301.4 52.5 304.6 51.35 A 35.811 35.811 0 0 0 307.448 50.181 A 45.508 45.508 0 0 0 311.25 48.2 Q 314.7 46.2 317.7 43.85 A 43.657 43.657 0 0 0 318.521 43.191 Q 319.718 42.206 320.711 41.238 A 24.672 24.672 0 0 0 322.55 39.25 Q 323.764 37.773 324.181 36.577 A 3.583 3.583 0 0 0 324.4 35.4 Q 324.2 34.4 322.9 32.5 Q 321.6 30.6 320 28.95 A 10.769 10.769 0 0 0 319.579 28.538 Q 318.771 27.791 318.072 27.495 A 2.237 2.237 0 0 0 317.2 27.3 A 4.201 4.201 0 0 0 317.033 27.304 Q 316.647 27.319 316 27.4 A 5.127 5.127 0 0 0 315.727 27.442 Q 315.372 27.506 314.979 27.625 A 9.574 9.574 0 0 0 314.2 27.9 A 20.989 20.989 0 0 0 313.435 28.215 Q 311.769 28.94 310.04 30.022 A 36.593 36.593 0 0 0 306.7 32.4 A 50.618 50.618 0 0 0 306.214 32.791 A 54.793 54.793 0 0 0 299.35 39.5 A 48.274 48.274 0 0 0 297.273 42.078 A 39.951 39.951 0 0 0 293.75 47.65 A 25.239 25.239 0 0 0 293.366 48.423 Q 291.6 52.138 291.6 55.4 A 4.809 4.809 0 0 0 291.825 56.814 Q 292.036 57.502 292.446 58.236 A 11.653 11.653 0 0 0 293.35 59.6 Q 295.1 61.9 297.6 63.6 A 13.404 13.404 0 0 0 298.41 64.111 Q 299.292 64.622 300.135 64.914 Z M 85.7 29.6 L 87.5 30.2 A 3.271 3.271 0 0 0 87.426 29.731 Q 87.294 29.185 86.978 28.951 A 0.844 0.844 0 0 0 86.8 28.85 A 1.399 1.399 0 0 1 86.531 28.705 Q 86.381 28.599 86.299 28.465 A 0.685 0.685 0 0 1 86.2 28.1 A 1.219 1.219 0 0 1 86.926 27.205 Q 87.173 27.095 87.5 27.05 Q 88.329 26.937 88.818 26.909 A 5.026 5.026 0 0 1 89.1 26.9 A 3.047 3.047 0 0 1 91.442 27.968 A 4.484 4.484 0 0 1 91.75 28.35 A 5.98 5.98 0 0 1 92.789 30.659 A 5.82 5.82 0 0 1 92.9 31.5 A 57.441 57.441 0 0 0 97.092 31.864 A 64.122 64.122 0 0 0 97.9 31.9 A 468.92 468.92 0 0 0 99.759 31.968 Q 100.495 31.993 101.168 32.014 A 265.842 265.842 0 0 0 102.45 32.05 A 1247.831 1247.831 0 0 0 102.91 32.062 Q 104.328 32.098 104.572 32.1 A 3.069 3.069 0 0 0 104.6 32.1 L 104.9 32.1 A 0.315 0.315 0 0 1 105.038 32.128 Q 105.171 32.192 105.195 32.403 A 0.875 0.875 0 0 1 105.2 32.5 A 1.185 1.185 0 0 1 104.891 33.292 Q 104.703 33.511 104.4 33.7 A 2.619 2.619 0 0 1 103.735 34.066 Q 102.488 34.563 99.75 34.75 Q 96.1 35 92.1 35 Q 91.6 36.5 90.6 38.2 A 41.885 41.885 0 0 1 89.233 40.364 A 50.015 50.015 0 0 1 88.3 41.7 A 25.647 25.647 0 0 1 87.794 42.403 Q 87.214 43.183 86.394 44.189 A 92.874 92.874 0 0 1 85.6 45.15 Q 83.8 47.3 81.9 49.5 Q 80 51.7 78.7 53.2 Q 79.529 52.463 81.333 50.667 A 221.604 221.604 0 0 0 81.65 50.35 A 66.869 66.869 0 0 0 83.082 48.876 Q 84.187 47.7 85 46.7 Q 85.481 46.122 86.426 44.85 A 123.325 123.325 0 0 0 86.5 44.75 A 267.373 267.373 0 0 1 88.212 42.464 A 241.314 241.314 0 0 1 88.45 42.15 A 48.217 48.217 0 0 0 88.78 41.711 Q 89.276 41.043 89.49 40.694 A 2.641 2.641 0 0 0 89.6 40.5 A 26.979 26.979 0 0 1 86.669 45.23 A 30.155 30.155 0 0 1 86.3 45.7 A 58.493 58.493 0 0 1 83.8 48.63 A 48.55 48.55 0 0 1 82.3 50.2 Q 80.4 52.1 79.041 53.324 A 45.761 45.761 0 0 1 78.9 53.45 A 342.901 342.901 0 0 0 78.417 53.882 Q 77.462 54.738 77.3 54.9 A 67.093 67.093 0 0 1 72.559 59.423 A 53.483 53.483 0 0 1 68.85 62.35 A 24.853 24.853 0 0 1 66.566 63.82 Q 64.13 65.191 62.182 65.372 A 6.283 6.283 0 0 1 61.6 65.4 A 8.028 8.028 0 0 1 59.838 65.196 A 10.325 10.325 0 0 1 58.65 64.85 Q 57.1 64.3 55.9 63.2 A 9.354 9.354 0 0 1 55.057 62.308 Q 54.237 61.328 53.352 59.853 A 27.47 27.47 0 0 1 53.35 59.85 A 10.231 10.231 0 0 1 52.427 57.891 A 7.684 7.684 0 0 1 52 55.4 Q 52 54.5 52.3 53.8 A 42.037 42.037 0 0 1 59.741 41.248 A 50.595 50.595 0 0 1 62.7 38.05 A 58.88 58.88 0 0 1 74.113 29.282 A 72.06 72.06 0 0 1 80.3 26 Q 81.7 26 83.2 27.05 Q 84.7 28.1 85.7 29.6 Z M 84.1 37.2 L 82.6 38.6 Q 83.3 37.9 84.35 36.65 Q 85.289 35.532 85.948 34.854 A 15.314 15.314 0 0 1 86.1 34.7 A 248.933 248.933 0 0 1 85.025 34.629 Q 82.887 34.481 82.4 34.4 A 0.432 0.432 0 0 1 82.33 34.503 A 0.301 0.301 0 0 1 82.1 34.6 A 0.124 0.124 0 0 1 81.995 34.532 Q 81.923 34.417 81.905 34.111 A 3.788 3.788 0 0 1 81.9 33.9 L 81.9 33.35 A 2.785 2.785 0 0 1 81.932 32.94 A 3.572 3.572 0 0 1 82 32.6 Q 81 32.5 79.8 32.9 A 5.406 5.406 0 0 0 78.899 33.304 Q 78.48 33.536 78.03 33.86 A 13.307 13.307 0 0 0 77.1 34.6 Q 75.485 36.12 72.966 38.363 A 382.092 382.092 0 0 1 72.7 38.6 A 85.129 85.129 0 0 0 69.423 41.679 A 106.944 106.944 0 0 0 67.1 44.05 Q 64.2 47.1 61.65 50.6 Q 59.1 54.1 57.6 58 A 6.423 6.423 0 0 0 57.142 59.706 A 5.797 5.797 0 0 0 57.1 60.4 Q 57.1 62.079 58.564 61.417 A 3.47 3.47 0 0 0 58.6 61.4 A 13.202 13.202 0 0 0 59.204 61.131 Q 61.037 60.263 63.395 58.526 A 55.545 55.545 0 0 0 65.85 56.6 Q 70.2 53 74.4 48.5 Q 76.2 46.5 78.15 44.25 Q 80.1 42 82.4 39.2 A 80.519 80.519 0 0 1 81.934 39.713 Q 81.102 40.622 79.8 42 A 410.221 410.221 0 0 0 79.373 42.452 A 455.682 455.682 0 0 0 76.3 45.75 A 1187.047 1187.047 0 0 1 75.802 46.29 Q 75.066 47.086 74.402 47.801 A 693.365 693.365 0 0 1 73.1 49.2 A 82.043 82.043 0 0 1 69.102 53.288 A 61.723 61.723 0 0 1 64.65 57.15 A 142.517 142.517 0 0 1 64.513 57.257 Q 60.468 60.417 58.6 61.4 Q 58.1 61.7 58.1 61.8 A 0.183 0.183 0 0 0 58.129 61.905 Q 58.177 61.977 58.307 61.994 A 0.693 0.693 0 0 0 58.4 62 A 2.106 2.106 0 0 0 58.803 61.958 Q 59.004 61.919 59.229 61.843 A 4.984 4.984 0 0 0 59.6 61.7 Q 60.594 61.158 62.118 60.045 A 51.192 51.192 0 0 0 62.45 59.8 A 1135.105 1135.105 0 0 1 65.159 57.794 A 1277.952 1277.952 0 0 1 66.1 57.1 A 46.87 46.87 0 0 0 67.431 55.959 Q 68.587 54.931 69.9 53.65 Q 71.705 51.888 73.805 49.573 A 133.702 133.702 0 0 0 74.5 48.8 Q 76.7 46.3 79.2 43.35 Q 81.7 40.4 84.1 37.2 Z M 87.155 90.467 A 19.057 19.057 0 0 0 88.95 89.4 Q 92.178 87.248 95.537 83.74 A 57.228 57.228 0 0 0 96 83.25 A 97.646 97.646 0 0 0 101.933 76.255 A 109.397 109.397 0 0 0 103 74.85 Q 106.4 70.3 109.15 65.75 Q 111.61 61.68 113.15 58.17 A 45.661 45.661 0 0 0 113.5 57.35 A 32.904 32.904 0 0 0 114.273 55.315 Q 114.922 53.404 115.062 52.019 A 7.192 7.192 0 0 0 115.1 51.3 Q 115.1 50.13 114.774 49.364 A 2.323 2.323 0 0 0 114.05 48.4 A 8.754 8.754 0 0 0 112.735 47.565 A 7.334 7.334 0 0 0 111.9 47.2 A 1.963 1.963 0 0 1 111.42 46.918 Q 111.231 46.771 111.051 46.568 A 3.668 3.668 0 0 1 110.95 46.45 A 4.617 4.617 0 0 1 110.714 46.137 Q 110.47 45.781 110.4 45.5 Q 107.251 49.043 103.424 53.506 A 828.248 828.248 0 0 0 103.3 53.65 Q 99.4 58.2 95.75 62.9 Q 92.1 67.6 89.3 71.7 Q 88.926 72.168 87.72 73.993 A 189.799 189.799 0 0 0 87.55 74.25 Q 86.2 76.3 84.55 79.05 A 48.657 48.657 0 0 0 82.007 83.863 A 44.153 44.153 0 0 0 81.7 84.55 A 19.372 19.372 0 0 0 81.067 86.186 Q 80.792 87.013 80.651 87.746 A 7.691 7.691 0 0 0 80.5 89.2 Q 80.5 90.2 81.1 90.95 A 1.951 1.951 0 0 0 82.405 91.674 A 2.853 2.853 0 0 0 82.8 91.7 Q 84.777 91.7 87.155 90.467 Z M 318.8 37.7 L 319.3 37.2 A 0.033 0.033 0 0 0 319.266 37.164 Q 319.124 37.154 318.392 37.684 A 22.566 22.566 0 0 0 318.1 37.9 L 309.7 44.1 Q 309.617 44.183 309.466 44.197 A 0.703 0.703 0 0 1 309.4 44.2 A 0.05 0.05 0 0 1 309.383 44.197 Q 309.325 44.176 309.475 43.982 A 2.321 2.321 0 0 1 309.5 43.95 A 1.398 1.398 0 0 1 309.654 43.789 Q 309.856 43.606 310.2 43.4 A 58.494 58.494 0 0 0 312.997 41.31 A 69.265 69.265 0 0 0 314.3 40.25 Q 316.4 38.5 318.3 36.9 A 49.997 49.997 0 0 0 318.863 36.448 Q 320.34 35.244 320.629 34.781 A 0.376 0.376 0 0 0 320.7 34.6 Q 318.4 34.6 314.8 36.8 A 44.578 44.578 0 0 0 310.507 39.8 A 56.237 56.237 0 0 0 307.55 42.3 Q 303.9 45.6 301.2 49.1 Q 304.2 48 307.6 46 Q 311 44 314 41.75 A 64.819 64.819 0 0 0 316.041 40.158 Q 316.952 39.416 317.711 38.731 A 29.401 29.401 0 0 0 318.8 37.7 Z M 197.4 56.2 Q 199.7 54.7 202.85 52.05 Q 206 49.4 208.3 46.9 A 104.102 104.102 0 0 0 215.778 37.751 A 116.833 116.833 0 0 0 217.1 35.9 Q 216.334 36.819 215.158 38.206 A 781.104 781.104 0 0 1 214.4 39.1 Q 212.7 41.1 210.95 43.15 A 153.745 153.745 0 0 1 209.701 44.596 Q 208.712 45.725 207.9 46.6 A 60.324 60.324 0 0 1 205.376 49.296 Q 204.141 50.532 202.997 51.5 A 24.826 24.826 0 0 1 201.05 53 A 468.027 468.027 0 0 0 199.996 53.728 Q 198.187 54.98 197.64 55.392 A 6.126 6.126 0 0 0 197.5 55.5 A 0.942 0.942 0 0 0 197.266 55.661 A 0.712 0.712 0 0 0 197.05 56.1 Q 197 56.5 197.4 56.2 Z M 10.2 62.9 Q 13.6 60.3 17.2 57.7 Q 20.8 55.1 23.75 53 A 131.687 131.687 0 0 1 25.128 52.031 Q 27.05 50.7 28.1 50.1 Q 28.183 50.017 28.334 50.003 A 0.703 0.703 0 0 1 28.4 50 Q 28.782 50 28.799 50.273 A 0.421 0.421 0 0 1 28.8 50.3 A 0.445 0.445 0 0 1 28.683 50.591 Q 28.495 50.815 28 51 A 8.156 8.156 0 0 0 27.322 51.327 Q 26.11 51.972 23.95 53.45 Q 21.1 55.4 17.9 57.8 M 10.2 62.9 L 7.4 65.5 Q 7.099 65.801 6.826 66.3 A 6.193 6.193 0 0 0 6.65 66.65 A 6.114 6.114 0 0 0 6.612 66.734 Q 6.323 67.377 6.7 67 A 8.135 8.135 0 0 1 7.209 66.445 Q 8.061 65.584 9.772 64.169 A 100.581 100.581 0 0 1 10.9 63.25 Q 14.2 60.6 17.9 57.8 L 10.2 62.9 Z M 194 41.2 A 109.331 109.331 0 0 1 191.529 42.971 Q 190.418 43.744 189.435 44.376 A 44.59 44.59 0 0 1 187.6 45.5 Q 186.1 46.4 184.75 47.15 A 25.659 25.659 0 0 0 183.16 48.107 A 21.2 21.2 0 0 0 182.3 48.7 A 24.099 24.099 0 0 1 183.446 47.806 Q 184.044 47.366 184.732 46.907 A 41.573 41.573 0 0 1 185.2 46.6 Q 186.369 45.844 187.916 44.898 A 213.819 213.819 0 0 1 189.4 44 Q 190.2 43.5 191.5 42.7 A 44.336 44.336 0 0 0 193.164 41.622 A 53.012 53.012 0 0 0 194.2 40.9 M 136.8 59.5 L 136.1 60.6 L 140.9 57.6 L 136.8 59.5 Z M 113.3 74 L 113.4 73.9 L 112.85 74.55 Q 112.429 75.048 112.154 75.34 A 7.083 7.083 0 0 1 112 75.5 M 194.8 40.8 L 194.4 41.5 L 194.6 41.4 L 194.8 40.8 Z M 47.3 3.3 L 47.25 3.3 A 0.149 0.149 0 0 0 47.218 3.307 Q 47.113 3.335 46.725 3.49 A 29.975 29.975 0 0 0 46.7 3.5 M 46.7 3.5 Q 46.6 3.5 46.5 3.6 Q 46.366 3.6 46.277 3.645 A 0.296 0.296 0 0 0 46.2 3.7 M 46 3.7 A 0.963 0.963 0 0 1 45.775 3.781 A 0.817 0.817 0 0 1 45.6 3.8 M 46.2 3.7 Q 46.1 3.7 46 3.75 A 0.451 0.451 0 0 1 45.988 3.756 Q 45.906 3.794 46 3.7" vector-effect="non-scaling-stroke"/></g></svg>